<svg xmlns="http://www.w3.org/2000/svg" viewBox="0 0 640 480">
  <rect width="640" height="480" fill="#012169"/>
  <path d="M0 0l213 160H0V0zm427 0l213 160V0H427z" fill="#FFF"/>
  <path d="M0 480l213-160H0v160zm427 480l213-160v160H427z" fill="#FFF"/>
  <path d="M640 0L427 160h213V0zm0 480L427 320h213v160zM0 0v160h213L0 0zm0 480v-160h213L0 480z" fill="#C8102E"/>
  <path d="M0 0l320 240L640 0H0zm0 480l320-240 320 240H0z" fill="#FFF" opacity=".3"/>
  <path d="M320 0v480M0 240h640" stroke="#C8102E" stroke-width="60"/>
  <path d="M320 0v480M0 240h640" stroke="#FFF" stroke-width="80" opacity=".4"/>
</svg>